<?xml version="1.0" encoding="iso-8859-1"?>
<!-- Generator: Adobe Illustrator 19.0.0, SVG Export Plug-In . SVG Version: 6.00 Build 0)  -->
<svg version="1.1" id="Capa_1" xmlns="http://www.w3.org/2000/svg" xmlns:xlink="http://www.w3.org/1999/xlink" x="0px" y="0px"
	 viewBox="0 0 463 463" style="enable-background:new 0 0 463 463;" xml:space="preserve">
<g>
	<path d="M460.387,136.676c-8.356-20.176-34.258-26.559-54.514-28.36c-26.138-2.324-60.227,1.072-98.591,9.825
		c-0.377,0.086-0.736,0.208-1.086,0.345C284.008,103.781,258.225,96,231.46,96c-65.411,0-120.145,46.59-132.762,108.328
		C25.712,249.967-10.226,295.521,2.534,326.324c7.946,19.186,32.361,29.099,71.13,29.098c6.981,0,14.434-0.322,22.332-0.969
		c18.778-1.538,39.281-4.886,60.85-9.857C179.008,359.246,204.756,367,231.46,367c64.423,0,119.957-45.44,132.761-108.307
		c18.755-11.731,35.61-23.855,49.968-36.039C453.79,189.047,469.765,159.316,460.387,136.676z M231.46,111
		c24.476,0,48.033,7.293,68.126,21.092c18.821,12.924,33.444,30.697,42.465,51.517c-1.356,2.009-7.336,9.016-31.102,22.768
		c-20.038,11.597-46.646,24.433-74.923,36.146c-28.275,11.712-56.167,21.45-78.536,27.42c-26.586,7.094-35.751,6.35-38.106,5.89
		c-5.584-14.103-8.423-29.012-8.423-44.332C110.96,165.056,165.016,111,231.46,111z M231.46,352
		c-18.84,0-37.139-4.345-53.737-12.634c27.787-7.503,56.929-17.471,86.164-29.581c29.251-12.116,56.921-25.683,81.886-40.034
		C329.599,318.244,283.829,352,231.46,352z M404.484,211.217c-35.77,30.354-87.739,60.438-146.337,84.711
		c-58.597,24.271-116.618,39.747-163.375,43.575c-42.724,3.499-72.023-3.575-78.38-18.919
		c-7.352-17.748,14.839-54.049,79.794-96.825c-0.145,2.563-0.226,5.142-0.226,7.741c0,2.955,0.102,5.895,0.289,8.821
		c-27.979,19.505-58.194,46.507-49.431,67.66c3.244,7.833,11.042,13.031,23.177,15.449c0.495,0.099,0.987,0.146,1.474,0.146
		c3.504,0,6.637-2.468,7.348-6.035c0.81-4.063-1.827-8.012-5.89-8.821c-6.725-1.34-11.075-3.641-12.251-6.479
		c-1.526-3.687,1.481-10.608,8.048-18.518c6.6-7.95,16.762-17.009,29.673-26.494c1.648,8.569,4.125,16.959,7.425,25.107
		c0.235,0.581,0.55,1.101,0.902,1.586c2.333,4.829,7.54,7.223,16.588,7.222c7.641,0,18.018-1.704,31.692-5.077
		c24.065-5.938,54.877-16.481,86.761-29.688c31.884-13.206,61.127-27.539,82.343-40.357c20.775-12.552,31.1-21.678,32.936-29.56
		c0.763-1.776,0.846-3.843,0.064-5.776c-3.59-8.868-8.087-17.257-13.379-25.082c15.79-2.415,29.346-3.195,39.624-2.259
		c10.296,0.941,17.357,3.713,18.891,7.413c1.563,3.774-1.399,12.439-14.403,25.438c-2.929,2.929-2.93,7.678-0.002,10.607
		c1.465,1.465,3.385,2.197,5.305,2.197c1.919,0,3.838-0.731,5.303-2.195c16.407-16.401,22.348-30.461,17.655-41.787
		c-8.752-21.133-49.126-18.898-82.781-12.893c-3.638-4.141-7.54-8.058-11.678-11.744c66.585-13.613,116.158-9.037,124.887,12.034
		C452.885,157.761,437.167,183.48,404.484,211.217z"/>
	<path d="M315.85,236.302c-21.203,11.631-44.355,22.666-68.815,32.798c-53.976,22.356-106.541,37.043-144.219,40.294
		c-4.127,0.356-7.184,3.99-6.828,8.117c0.338,3.908,3.613,6.855,7.464,6.855c0.216,0,0.435-0.009,0.653-0.027
		c39.146-3.378,93.334-18.461,148.67-41.382c24.962-10.34,48.61-21.612,70.29-33.505c3.631-1.992,4.96-6.551,2.968-10.183
		C324.041,235.639,319.483,234.308,315.85,236.302z"/>
	<path d="M363.06,206.846c-4.704,3.409-9.797,6.898-15.137,10.369c-3.474,2.257-4.459,6.902-2.201,10.375
		c1.437,2.211,3.841,3.414,6.295,3.414c1.401,0,2.818-0.393,4.08-1.213c5.553-3.608,10.856-7.242,15.766-10.801
		c3.354-2.431,4.103-7.12,1.671-10.474C371.103,205.161,366.41,204.415,363.06,206.846z"/>
	<path d="M199.458,148.465c0.829,0,1.672-0.139,2.499-0.431c4.781-1.689,9.742-2.972,14.744-3.811
		c4.085-0.686,6.841-4.553,6.155-8.638c-0.685-4.085-4.557-6.841-8.638-6.155c-5.854,0.982-11.662,2.483-17.26,4.461
		c-3.905,1.38-5.952,5.664-4.572,9.57C193.475,146.541,196.368,148.465,199.458,148.465z"/>
	<path d="M246.218,144.223c19.878,3.335,38.213,13.545,51.628,28.749c1.482,1.681,3.55,2.538,5.627,2.538
		c1.763,0,3.533-0.618,4.959-1.876c3.106-2.741,3.402-7.48,0.662-10.586c-15.686-17.776-37.134-29.716-60.394-33.618
		c-4.084-0.684-7.952,2.07-8.638,6.155S242.133,143.538,246.218,144.223z"/>
</g>
<g>
</g>
<g>
</g>
<g>
</g>
<g>
</g>
<g>
</g>
<g>
</g>
<g>
</g>
<g>
</g>
<g>
</g>
<g>
</g>
<g>
</g>
<g>
</g>
<g>
</g>
<g>
</g>
<g>
</g>
</svg>
