<?xml version="1.0" encoding="iso-8859-1"?>
<!-- Generator: Adobe Illustrator 19.0.0, SVG Export Plug-In . SVG Version: 6.00 Build 0)  -->
<svg version="1.1" id="Layer_1" xmlns="http://www.w3.org/2000/svg" xmlns:xlink="http://www.w3.org/1999/xlink" x="0px" y="0px"
	 viewBox="0 0 488 488" style="enable-background:new 0 0 488 488;" xml:space="preserve">
<g transform="translate(0 -540.36)">
	<g>
		<g>
			<path d="M244,708.96c5.5,0,10-4.5,10-10v-41.3c0-5.5-4.5-10-10-10s-10,4.5-10,10v41.3C234,704.46,238.5,708.96,244,708.96z"/>
			<path d="M371.3,751.86c2.6,0,5.3-1,7.2-3.1l30.6-31.8c3.8-3.9,3.6-10.3-0.3-14.1c-3.9-3.8-10.3-3.7-14.1,0.3l-30.6,31.8
				c-3.8,3.9-3.7,10.3,0.3,14.1C366.3,750.96,368.8,751.86,371.3,751.86z"/>
			<path d="M109.5,748.76c2,2.1,4.6,3.1,7.2,3.1c2.5,0,5-0.9,6.9-2.8c4-3.8,4.1-10.1,0.3-14.1l-30.6-31.8c-3.8-4-10.1-4.1-14.1-0.3
				s-4.1,10.1-0.3,14.1L109.5,748.76z"/>
			<polygon points="244,816.86 244,816.86 244,816.86 			"/>
			<path d="M251.2,819.96c-1.9-2-4.5-3.1-7.2-3.1s-5.3,1.1-7.2,3.1l-40.5,42.1c-3.8,3.9-3.7,10.3,0.3,14.1
				c3.9,3.8,10.3,3.7,14.1-0.3l33.3-34.6l33.3,34.6c3.8,4,10.1,4.1,14.1,0.3s4.1-10.1,0.3-14.1L251.2,819.96z"/>
			<path d="M478,837.56h-39.8c-5.5,0-10,4.5-10,10s4.5,10,10,10H478c5.5,0,10-4.5,10-10S483.5,837.56,478,837.56z"/>
			<path d="M59.8,847.56c0-5.5-4.5-10-10-10H10c-5.5,0-10,4.5-10,10s4.5,10,10,10h39.8C55.3,857.56,59.8,853.06,59.8,847.56z"/>
			<path d="M447.4,901.06h-50.8c-2.5-38.6-18.3-74.6-45-102c-28.9-29.6-67.1-45.8-107.6-45.8s-78.8,16.3-107.6,45.8
				c-26.8,27.4-42.6,63.3-45,102H40.6c-5.5,0-10,4.5-10,10s4.5,10,10,10h406.8c5.5,0,10-4.5,10-10S452.9,901.06,447.4,901.06z
				 M111.4,901.06c5.3-71.2,63-127.8,132.6-127.8s127.3,56.5,132.6,127.8H111.4z"/>
		</g>
	</g>
</g>
<g>
</g>
<g>
</g>
<g>
</g>
<g>
</g>
<g>
</g>
<g>
</g>
<g>
</g>
<g>
</g>
<g>
</g>
<g>
</g>
<g>
</g>
<g>
</g>
<g>
</g>
<g>
</g>
<g>
</g>
</svg>
